<svg width="849" height="669" viewBox="0 0 849 669" fill="none" xmlns="http://www.w3.org/2000/svg">
<mask id="mask0_1_673" style="mask-type:alpha" maskUnits="userSpaceOnUse" x="0" y="0" width="849" height="669">
<path d="M839.856 233.364C787.875 17.5509 621.699 -35.2026 490.892 20.756C360.084 76.7145 412.217 204.65 185.325 213.388C-41.5668 222.126 -116.274 550.951 289.213 649.033C694.7 747.115 891.837 449.176 839.856 233.364Z" fill="white"/>
</mask>
<g mask="url(#mask0_1_673)">
<path d="M839.856 233.364C787.875 17.5509 621.699 -35.2026 490.892 20.756C360.084 76.7145 412.217 204.65 185.325 213.388C-41.5668 222.126 -116.274 550.951 289.213 649.033C694.7 747.115 891.837 449.176 839.856 233.364Z" fill="#EDFCFF"/>
<path fill-rule="evenodd" clip-rule="evenodd" d="M832.61 140.393C789.536 128.818 761.53 130.176 748.593 144.468C729.188 165.907 744.81 196.719 764.384 201.55C744.068 202.471 732.993 212.85 731.16 232.688C718.501 202.671 696.029 188.517 663.745 190.224C615.318 192.785 599.342 232.117 599.342 252.946C589.378 228.392 573.442 220.54 551.534 229.392C518.673 242.669 532.774 280.606 546.528 289.159C532.083 292.015 526.59 300.269 530.05 313.921C504.57 290.143 474.926 289.323 441.118 311.459C439.651 291.756 432.506 282.563 419.685 283.879C429.201 272.84 431.313 262.331 426.021 252.35C418.084 237.378 387.996 226.443 372.874 252.35C354.49 244.279 339.274 247.959 327.228 263.388C316.989 240.192 299.986 229.958 276.221 232.688C240.573 236.783 232.64 274.557 232.64 274.557C220.023 261.367 204.698 259.375 186.667 268.578C197.906 240.981 196.051 221.635 181.1 210.539C158.673 193.896 75.3878 190.782 92.5836 247.752C104.048 285.732 153.046 332.89 239.578 389.225L441.118 429.67H870.083L859.509 144.468L832.61 140.393Z" fill="white"/>
<path fill-rule="evenodd" clip-rule="evenodd" d="M-38.7449 206.007C98.5276 193.039 168.731 220.065 171.865 287.086C213.853 274.006 250.347 272.026 281.347 281.147C329.043 295.179 363.689 316.775 373.113 369.611C468.555 334.012 542.422 347.426 594.715 409.855C678.919 310.972 767.064 277.213 859.149 308.578C951.235 339.943 928.142 401.441 789.869 493.071H-55.1914L-38.7449 206.007Z" fill="white"/>
<path opacity="0.298386" d="M275.184 502.306C228.847 502.306 191.284 464.741 191.284 418.403C191.284 372.065 228.847 334.5 275.184 334.5C321.521 334.5 359.084 372.065 359.084 418.403C359.084 464.741 321.521 502.306 275.184 502.306Z" fill="#FFE29E"/>
<path d="M-38.7451 491.193H885.82V746.791H-38.7451V491.193Z" fill="#AED9E0"/>
<path fill-rule="evenodd" clip-rule="evenodd" d="M-162.794 493.415C-103.012 351.063 -23.5534 297.971 75.5817 334.14C122.35 351.203 205.575 461.765 282.058 482.11C448.759 526.452 726.102 493.415 747.061 493.415C767.444 493.415 464.159 493.415 -162.794 493.415Z" fill="#ADD9E1"/>
<path fill-rule="evenodd" clip-rule="evenodd" d="M1048.06 493.416C867.447 357.17 755.562 308.786 712.409 348.265C603.581 447.826 545.014 355.178 468.106 375.618C421.749 387.938 375.307 438.327 331.454 455.159C231.525 493.516 153.296 493.415 138.208 493.415C117.824 493.415 421.109 493.415 1048.06 493.416Z" fill="#D7F2F7"/>
<path fill-rule="evenodd" clip-rule="evenodd" d="M740.951 277.989C753.846 313.709 767.575 303.649 767.575 329.354C767.575 355.059 776.917 350.252 776.917 367.251C776.917 384.251 765.671 393.431 760.04 406.116C754.408 418.802 749.338 444.352 738.409 438.837C727.48 433.321 700.118 400.108 716.018 372.823C731.918 345.537 728.353 336.441 718.796 314.709C709.24 292.977 728.056 242.268 740.951 277.989Z" fill="#ABD6C8"/>
<path d="M737.469 309.703C746.234 331.156 748.425 354.302 744.043 379.142C739.66 403.982 739.66 438.504 744.043 482.707" stroke="#32353F" stroke-width="0.81"/>
<path d="M742.865 386.991L759.024 372.117" stroke="#32353F" stroke-width="0.81"/>
<path d="M746.234 349.679L736.002 340.479" stroke="#32353F" stroke-width="0.81"/>
<path d="M740.886 415.249L728.249 402.294" stroke="#32353F" stroke-width="0.81"/>
<path fill-rule="evenodd" clip-rule="evenodd" d="M657.469 350.679C666.325 351.3 678.955 362.502 678.955 381.182C678.955 399.862 686.239 408.672 687.128 414.826C688.017 420.98 685.595 426.579 676.893 435.472C668.191 444.365 672.098 456.456 664.014 458.924C661.1 459.814 656.23 454.807 656.23 445.967C656.23 437.127 636.108 416.676 641.971 407.312C644.967 402.527 651.813 397.817 653.277 392.672C655.295 385.58 647.348 374.885 646.036 362.502C644.716 350.047 652.773 350.35 657.469 350.679Z" fill="#EDFCFF"/>
<path d="M661.1 362.502C667.16 377.333 668.675 393.336 665.645 410.509C662.615 427.682 662.615 451.549 665.645 482.11" stroke="#32353F" stroke-width="0.8"/>
<path d="M664.83 415.935L676.002 405.652" stroke="#32353F" stroke-width="0.8"/>
<path d="M667.16 390.14L660.086 383.779" stroke="#32353F" stroke-width="0.8"/>
<path d="M663.463 435.472L654.726 426.515" stroke="#32353F" stroke-width="0.8"/>
<path fill-rule="evenodd" clip-rule="evenodd" d="M813.632 268.252C827.96 307.941 843.214 296.763 843.214 325.325C843.214 353.886 853.594 348.545 853.594 367.433C853.594 386.322 841.099 396.522 834.842 410.617C828.585 424.711 822.951 453.1 810.808 446.972C798.665 440.844 768.262 403.94 785.929 373.623C803.596 343.306 799.634 333.199 789.016 309.053C778.398 284.906 799.304 228.563 813.632 268.252Z" fill="#EDFCFF"/>
<path d="M809.763 303.49C819.502 327.327 821.937 353.045 817.067 380.645C812.198 408.245 812.198 446.602 817.067 495.717" stroke="#32353F" stroke-width="0.9"/>
<path d="M815.758 389.366L833.713 372.839" stroke="#32353F" stroke-width="0.9"/>
<path d="M819.502 347.909L808.133 337.686" stroke="#32353F" stroke-width="0.9"/>
<path d="M813.561 420.764L799.519 406.369" stroke="#32353F" stroke-width="0.9"/>
<path fill-rule="evenodd" clip-rule="evenodd" d="M125.764 264.918C140.092 304.607 155.346 293.43 155.346 321.991C155.346 350.552 165.726 345.211 165.726 364.099C165.726 382.988 153.231 393.188 146.974 407.283C140.717 421.377 135.084 449.767 122.94 443.638C110.797 437.51 80.3945 400.607 98.0613 370.29C115.728 339.972 111.766 329.865 101.148 305.719C90.5301 281.572 111.436 225.229 125.764 264.918Z" fill="#ABD6C8"/>
<path d="M121.895 300.156C131.634 323.993 134.069 349.711 129.199 377.311C124.33 404.911 124.33 443.268 129.199 492.383" stroke="#32353F" stroke-width="0.9"/>
<path d="M127.89 386.032L145.846 369.505" stroke="#32353F" stroke-width="0.9"/>
<path d="M131.634 344.575L120.266 334.352" stroke="#32353F" stroke-width="0.9"/>
<path d="M125.693 417.43L111.651 403.035" stroke="#32353F" stroke-width="0.9"/>
<path fill-rule="evenodd" clip-rule="evenodd" d="M46.2774 350.679C55.1334 351.3 67.7631 362.502 67.7631 381.182C67.7631 399.862 75.0474 408.672 75.9365 414.826C76.8255 420.98 74.4038 426.579 65.7019 435.472C57 444.365 60.9066 456.456 52.8223 458.924C49.9085 459.814 45.0382 454.807 45.0382 445.967C45.0382 437.127 24.9162 416.676 30.7791 407.312C33.7755 402.527 40.6213 397.817 42.0853 392.672C44.1037 385.58 36.1562 374.885 34.8444 362.502C33.525 350.047 41.5816 350.35 46.2774 350.679Z" fill="#EDFCFF"/>
<path d="M49.9083 362.502C55.9683 377.333 57.4832 393.336 54.4533 410.509C51.4233 427.682 51.4233 451.549 54.4533 482.11" stroke="#32353F" stroke-width="0.8"/>
<path d="M53.6388 415.935L64.811 405.652" stroke="#32353F" stroke-width="0.8"/>
<path d="M55.9683 390.14L48.8944 383.779" stroke="#32353F" stroke-width="0.8"/>
<path d="M52.2715 435.472L43.5346 426.515" stroke="#32353F" stroke-width="0.8"/>
<path fill-rule="evenodd" clip-rule="evenodd" d="M212.754 482.302C233.64 487.729 241.939 492.789 237.652 497.483C231.22 504.523 160.079 513.777 225.252 526.517C290.424 539.257 352.292 547.26 331.928 567.957C311.563 588.653 241.374 641.545 241.374 641.545H498.139C485.784 576.202 446.057 538.926 378.958 529.718C278.311 515.906 242.915 515.78 271.661 506.632C287.493 501.592 287.383 492.479 249.935 485.078C244.682 484.04 232.289 483.115 212.754 482.302Z" fill="#709197"/>
<path fill-rule="evenodd" clip-rule="evenodd" d="M816.047 450.279C804.248 446.308 796.258 448.377 792.076 456.487C789.592 466.454 785.953 471.203 781.159 470.736C771.635 466.845 764.343 468.25 759.282 474.951C760.086 462.335 755.384 455.274 745.175 453.77C729.863 451.513 725.405 462.938 725.405 473.233C725.705 463.646 721.928 458.969 714.075 459.201C716.138 448.429 713.362 442.731 705.748 442.107C694.326 441.171 692.504 446.467 692.504 460.745C682.723 460.173 677.026 464.522 675.414 473.792C666.878 469.828 658.191 472.307 649.352 481.227C640.387 475.042 631.573 475.326 622.908 482.08C608.483 479.692 596.644 483.424 587.39 493.276L801.25 493.686L816.047 451.992" fill="#7EC4D2"/>
<path fill-rule="evenodd" clip-rule="evenodd" d="M682.696 472.505C670.897 468.534 662.907 470.603 658.725 478.713C656.241 488.68 652.602 493.429 647.808 492.962C638.285 489.071 630.992 490.476 625.931 497.176C626.735 484.56 622.033 477.5 611.825 475.996C596.512 473.739 592.055 485.164 592.055 495.459C592.354 485.872 588.578 481.195 580.724 481.427C582.787 470.655 580.012 464.956 572.397 464.333C560.975 463.397 559.153 468.693 559.153 482.971C549.372 482.398 543.676 486.747 542.064 496.018C533.527 492.054 524.84 494.533 516.002 503.453C507.037 497.268 498.222 497.552 489.558 504.306C475.133 501.918 463.293 505.65 454.039 515.502C445.548 504.124 428.997 500.705 404.386 505.246C391.155 507.686 383.07 515.877 380.131 529.818C402.619 532.246 424.518 540.411 445.827 554.313C467.136 568.214 481.171 587.056 487.93 610.839L667.899 515.911L682.696 474.218" fill="#7EC4D2"/>
<path fill-rule="evenodd" clip-rule="evenodd" d="M9.53613 450.279C21.3352 446.308 29.3254 448.377 33.507 456.487C35.9912 466.454 39.6303 471.203 44.4243 470.736C53.9478 466.845 61.2402 468.25 66.3014 474.951C65.4972 462.335 70.1993 455.274 80.4076 453.77C95.72 451.513 100.178 462.938 100.178 473.233C99.8779 463.646 103.655 458.969 111.508 459.201C109.445 448.429 112.221 442.731 119.835 442.107C131.257 441.171 133.079 446.467 133.079 460.745C142.86 460.173 148.557 464.522 150.169 473.792C158.705 469.828 167.392 472.307 176.231 481.227C185.196 475.042 194.01 475.326 202.675 482.08C217.357 479.786 229.325 483.565 238.579 493.416L24.3331 493.686L9.53613 451.992" fill="#7EC4D2"/>
<path d="M701.351 1004.61C557.124 1004.61 440.206 887.688 440.206 743.457C440.206 599.225 557.124 482.302 701.351 482.302C845.577 482.302 962.496 599.225 962.496 743.457C962.496 887.688 845.577 1004.61 701.351 1004.61Z" fill="#C6E5EB"/>
<path fill-rule="evenodd" clip-rule="evenodd" d="M142.389 1052.4C-1.83783 1052.4 -118.757 935.474 -118.757 791.243C-118.757 647.011 -35.3143 530.088 142.389 530.088C320.092 530.088 688.017 681.752 688.017 825.984C688.017 970.216 286.615 1052.4 142.389 1052.4Z" fill="#8EB5BC"/>
</g>
<path fill-rule="evenodd" clip-rule="evenodd" d="M359.918 97.6412H386.321V125.806H359.918C352.141 125.806 345.836 119.501 345.836 111.724C345.836 103.946 352.141 97.6412 359.918 97.6412Z" fill="#64291A"/>
<mask id="mask1_1_673" style="mask-type:alpha" maskUnits="userSpaceOnUse" x="359" y="35" width="85" height="105">
<path d="M359.568 139.136L368.458 55.3968C369.667 44.007 379.275 35.365 390.729 35.365L443.445 136.032L359.568 139.136Z" fill="white"/>
</mask>
<g mask="url(#mask1_1_673)">
<path d="M359.568 139.136L368.458 55.3968C369.667 44.007 379.275 35.365 390.729 35.365L443.445 136.032L359.568 139.136Z" fill="#BE553A"/>
<path fill-rule="evenodd" clip-rule="evenodd" d="M373.825 139.136V25.7421L359.568 74.9228L351.714 139.136H373.825Z" fill="#802E1A"/>
</g>
<mask id="mask2_1_673" style="mask-type:alpha" maskUnits="userSpaceOnUse" x="79" y="133" width="708" height="84">
<path d="M122.529 154.863L148.614 144.177C165.838 137.121 184.276 133.504 202.889 133.529L767.916 134.299C778.449 134.314 786.976 142.864 786.961 153.397C786.961 153.722 786.952 154.046 786.935 154.369C786.321 166.094 777.644 175.817 766.066 177.757C631.869 200.243 539.025 212.345 487.536 214.065C250.575 221.979 128.333 209.64 116.788 207.674C102.801 205.29 92.2987 202.042 85.2814 197.927L85.2814 197.927C79.54 194.561 77.6145 187.177 80.9807 181.436C81.3564 180.795 81.7905 180.19 82.2775 179.63C86.1742 175.142 99.5913 166.887 122.529 154.863Z" fill="white"/>
</mask>
<g mask="url(#mask2_1_673)">
<path d="M121.897 171.184L147.388 159.147C164.219 151.199 182.442 146.622 201.031 145.673L765.324 116.87C775.843 116.333 784.806 124.426 785.342 134.945C785.359 135.269 785.367 135.593 785.367 135.918C785.367 147.658 777.212 157.822 765.75 160.366C632.914 189.844 540.831 206.789 489.502 211.201C253.28 231.506 130.56 225.583 118.928 224.223C104.836 222.575 94.1775 219.88 86.9545 216.139L86.9545 216.139C81.0448 213.077 78.7355 205.805 81.7966 199.895C82.1383 199.235 82.5402 198.609 82.9972 198.023C86.6536 193.338 99.6203 184.392 121.897 171.184Z" fill="#DC6748"/>
<path opacity="0.0682199" fill-rule="evenodd" clip-rule="evenodd" d="M790.83 125.806C421.09 188.036 212.911 220.895 166.292 224.382L235.793 299.655L809.293 155.082L790.83 125.806Z" fill="#040404"/>
<path d="M239.461 173.655L236.55 173.808C234.407 173.92 232.76 175.749 232.872 177.893L233.279 185.656C233.392 187.799 235.22 189.446 237.364 189.334L240.275 189.181C242.418 189.069 244.065 187.24 243.953 185.096L243.546 177.333C243.434 175.19 241.605 173.543 239.461 173.655Z" fill="white"/>
<path d="M257.897 172.689L254.986 172.841C252.843 172.954 251.196 174.783 251.308 176.926L251.715 184.689C251.828 186.833 253.656 188.479 255.8 188.367L258.711 188.214C260.854 188.102 262.501 186.273 262.389 184.13L261.982 176.367C261.87 174.223 260.041 172.577 257.897 172.689Z" fill="white"/>
<path d="M276.333 171.723L273.422 171.875C271.279 171.988 269.632 173.816 269.744 175.96L270.151 183.723C270.264 185.866 272.092 187.513 274.236 187.401L277.147 187.248C279.29 187.136 280.937 185.307 280.825 183.163L280.418 175.401C280.306 173.257 278.477 171.61 276.333 171.723Z" fill="white"/>
<path d="M294.769 170.756L291.858 170.909C289.715 171.021 288.068 172.85 288.18 174.994L288.587 182.757C288.7 184.9 290.528 186.547 292.672 186.435L295.583 186.282C297.726 186.17 299.373 184.341 299.261 182.197L298.854 174.434C298.742 172.291 296.913 170.644 294.769 170.756Z" fill="white"/>
<path d="M313.205 169.79L310.294 169.943C308.151 170.055 306.504 171.884 306.616 174.028L307.023 181.79C307.136 183.934 308.964 185.581 311.108 185.468L314.019 185.316C316.162 185.203 317.809 183.375 317.697 181.231L317.29 173.468C317.178 171.325 315.349 169.678 313.205 169.79Z" fill="white"/>
<path d="M331.641 168.824L328.73 168.977C326.587 169.089 324.94 170.918 325.053 173.061L325.459 180.824C325.572 182.968 327.4 184.614 329.544 184.502L332.455 184.35C334.598 184.237 336.245 182.408 336.133 180.265L335.726 172.502C335.614 170.358 333.785 168.712 331.641 168.824Z" fill="white"/>
<path d="M350.077 167.858L347.166 168.01C345.023 168.123 343.376 169.952 343.489 172.095L343.895 179.858C344.008 182.002 345.836 183.648 347.98 183.536L350.891 183.383C353.035 183.271 354.681 181.442 354.569 179.299L354.162 171.536C354.05 169.392 352.221 167.745 350.077 167.858Z" fill="white"/>
<path d="M368.513 166.892L365.602 167.044C363.458 167.156 361.812 168.985 361.924 171.129L362.331 178.892C362.443 181.035 364.272 182.682 366.416 182.57L369.327 182.417C371.47 182.305 373.117 180.476 373.004 178.332L372.598 170.57C372.485 168.426 370.657 166.779 368.513 166.892Z" fill="white"/>
<path d="M386.949 165.925L384.038 166.078C381.894 166.19 380.248 168.019 380.36 170.163L380.767 177.926C380.879 180.069 382.708 181.716 384.852 181.603L387.763 181.451C389.906 181.339 391.553 179.51 391.44 177.366L391.034 169.603C390.921 167.46 389.093 165.813 386.949 165.925Z" fill="white"/>
<path d="M405.385 164.959L402.474 165.112C400.33 165.224 398.684 167.053 398.796 169.197L399.203 176.959C399.315 179.103 401.144 180.75 403.288 180.637L406.199 180.485C408.342 180.372 409.989 178.544 409.876 176.4L409.47 168.637C409.357 166.493 407.529 164.847 405.385 164.959Z" fill="white"/>
<path d="M424.032 163.982L421.121 164.134C418.977 164.247 417.331 166.076 417.443 168.219L417.85 175.982C417.962 178.126 419.791 179.772 421.935 179.66L424.846 179.507C426.989 179.395 428.636 177.566 428.523 175.423L428.117 167.66C428.004 165.516 426.176 163.869 424.032 163.982Z" fill="white"/>
<path d="M442.468 163.016L439.557 163.168C437.413 163.281 435.767 165.109 435.879 167.253L436.286 175.016C436.398 177.159 438.227 178.806 440.371 178.694L443.282 178.541C445.425 178.429 447.072 176.6 446.959 174.456L446.553 166.694C446.44 164.55 444.612 162.903 442.468 163.016Z" fill="white"/>
<path d="M460.904 162.049L457.993 162.202C455.85 162.314 454.203 164.143 454.315 166.287L454.722 174.05C454.834 176.193 456.663 177.84 458.807 177.728L461.718 177.575C463.861 177.463 465.508 175.634 465.396 173.49L464.989 165.727C464.876 163.584 463.048 161.937 460.904 162.049Z" fill="white"/>
<path d="M479.34 161.083L476.429 161.236C474.286 161.348 472.639 163.177 472.751 165.321L473.158 173.083C473.27 175.227 475.099 176.874 477.243 176.761L480.154 176.609C482.297 176.496 483.944 174.668 483.832 172.524L483.425 164.761C483.312 162.618 481.484 160.971 479.34 161.083Z" fill="white"/>
<path d="M497.776 160.117L494.865 160.27C492.722 160.382 491.075 162.211 491.187 164.354L491.594 172.117C491.706 174.261 493.535 175.907 495.679 175.795L498.59 175.643C500.733 175.53 502.38 173.701 502.268 171.558L501.861 163.795C501.748 161.651 499.92 160.005 497.776 160.117Z" fill="white"/>
<path d="M516.212 159.151L513.301 159.303C511.158 159.416 509.511 161.244 509.623 163.388L510.03 171.151C510.142 173.295 511.971 174.941 514.115 174.829L517.026 174.676C519.169 174.564 520.816 172.735 520.704 170.591L520.297 162.829C520.184 160.685 518.356 159.038 516.212 159.151Z" fill="white"/>
<path d="M534.648 158.185L531.737 158.337C529.594 158.449 527.947 160.278 528.059 162.422L528.466 170.185C528.578 172.328 530.407 173.975 532.551 173.863L535.462 173.71C537.605 173.598 539.252 171.769 539.14 169.625L538.733 161.862C538.621 159.719 536.792 158.072 534.648 158.185Z" fill="white"/>
<path d="M553.084 157.218L550.173 157.371C548.03 157.483 546.383 159.312 546.495 161.456L546.902 169.218C547.015 171.362 548.843 173.009 550.987 172.896L553.898 172.744C556.041 172.632 557.688 170.803 557.576 168.659L557.169 160.896C557.057 158.753 555.228 157.106 553.084 157.218Z" fill="white"/>
<path d="M571.52 156.252L568.609 156.405C566.466 156.517 564.819 158.346 564.931 160.489L565.338 168.252C565.451 170.396 567.279 172.043 569.423 171.93L572.334 171.778C574.477 171.665 576.124 169.836 576.012 167.693L575.605 159.93C575.493 157.786 573.664 156.14 571.52 156.252Z" fill="white"/>
<path d="M589.956 155.286L587.045 155.438C584.901 155.551 583.255 157.38 583.367 159.523L583.774 167.286C583.886 169.43 585.715 171.076 587.858 170.964L590.769 170.811C592.913 170.699 594.56 168.87 594.447 166.727L594.041 158.964C593.928 156.82 592.099 155.173 589.956 155.286Z" fill="white"/>
<path fill-rule="evenodd" clip-rule="evenodd" d="M94.1231 169.813L160.534 175.162C162.788 175.344 164.469 177.319 164.287 179.573C164.25 180.034 164.136 180.485 163.948 180.907C162.513 184.14 159.365 186.277 155.831 186.418L86.3477 189.195L94.1231 169.813Z" fill="white"/>
</g>
<path fill-rule="evenodd" clip-rule="evenodd" d="M417.401 266.629C418.315 266.629 520.004 246.636 520.806 245.711C523.45 242.664 511.574 232.469 511.574 223.606C511.574 219.919 490.371 218.495 447.965 219.335C429.547 221.731 419.044 223.324 416.456 224.115C413.261 225.092 410.295 234.159 410.295 245.711C410.295 257.264 413.477 266.629 417.401 266.629Z" fill="#64291A"/>
<path d="M416.456 266.629C419.859 266.629 422.617 257.172 422.617 245.506C422.617 233.84 419.859 224.382 416.456 224.382C413.054 224.382 410.295 233.84 410.295 245.506C410.295 257.172 413.054 266.629 416.456 266.629Z" fill="white" stroke="#551A0B" stroke-width="0.874368"/>
<path fill-rule="evenodd" clip-rule="evenodd" d="M690.083 116.666V97.1387H716.014L690.083 116.666Z" fill="#802E1A"/>
<mask id="mask3_1_673" style="mask-type:alpha" maskUnits="userSpaceOnUse" x="381" y="194" width="335" height="100">
<path d="M478.065 194.241H381.55V212.116L640.909 286.401C664.192 293.07 688.602 294.862 712.609 291.665L715.493 291.281L478.065 194.241Z" fill="white"/>
</mask>
<g mask="url(#mask3_1_673)">
<path d="M478.065 194.241H381.55V212.116L640.909 286.401C664.192 293.07 688.602 294.862 712.609 291.665L715.493 291.281L478.065 194.241Z" fill="#BE553A"/>
<path fill-rule="evenodd" clip-rule="evenodd" d="M377.704 194.241L675.477 293.315L651.559 315.364L373.825 216.41L377.704 194.241Z" fill="#802E1A"/>
</g>
<path fill-rule="evenodd" clip-rule="evenodd" d="M675.525 124.911L684.463 121.115L785.052 28.0767C792.209 21.4574 801.598 17.7807 811.347 17.7807L830.68 17.7807L761.977 128.291H676.213C675.241 128.291 674.453 127.503 674.453 126.531C674.453 125.825 674.875 125.187 675.525 124.911Z" fill="#BE553A"/>
<mask id="mask4_1_673" style="mask-type:alpha" maskUnits="userSpaceOnUse" x="689" y="148" width="142" height="40">
<path d="M726.376 148.254L689.216 154.055V162.772L778.258 183.4C795.232 187.332 812.777 188.165 830.047 185.856L726.376 148.254Z" fill="white"/>
</mask>
<g mask="url(#mask4_1_673)">
<path d="M726.376 148.254L689.216 154.055V162.772L778.258 183.4C795.232 187.332 812.777 188.165 830.047 185.856L726.376 148.254Z" fill="#BE553A"/>
<path fill-rule="evenodd" clip-rule="evenodd" d="M686.696 153.22L814.433 189.347L802.263 201.352L681.424 165.057L686.696 153.22Z" fill="#802E1A"/>
</g>
</svg>
